/vscmnt/brussel_pixiu_data/_data_brussel/112/vsc11236/PredSimResults/SUBJ11opt3D/trackIG/worker_08.mot
version=1
nRows=5
nColumns=50
inDegrees=yes
endheader
                time	         pelvis_tilt	         pelvis_list	     pelvis_rotation	           pelvis_tx	           pelvis_ty	           pelvis_tz	       hip_flexion_r	     hip_adduction_r	      hip_rotation_r	        knee_angle_r	       ankle_angle_r	         mtp_angle_r	       hip_flexion_l	     hip_adduction_l	      hip_rotation_l	        knee_angle_l	       ankle_angle_l	         mtp_angle_l	    lumbar_extension	      lumbar_bending	     lumbar_rotation	 ercspn_r/activation	 intobl_r/activation	 extobl_r/activation	    abd_r/activation	    add_r/activation	hamstrings_r/activation	bifemsh_r/activation	glut_max_r/activation	iliopsoas_r/activation	rect_fem_r/activation	  vasti_r/activation	gastroc_r/activation	 soleus_r/activation	tib_ant_r/activation	 ercspn_l/activation	 intobl_l/activation	 extobl_l/activation	    abd_l/activation	    add_l/activation	hamstrings_l/activation	bifemsh_l/activation	glut_max_l/activation	iliopsoas_l/activation	rect_fem_l/activation	  vasti_l/activation	gastroc_l/activation	 soleus_l/activation	tib_ant_l/activation	
          0.00000000	         -5.01553682	         -2.06719703	          6.78287320	          0.00000000	          0.93433216	         -0.00588066	         33.66718850	         -1.42614144	         -6.31390381	         -8.99279663	          2.59173087	          0.26001042	        -14.03190390	         -3.75266931	         -0.53341926	        -11.78093274	          9.94746466	         34.35713798	        -13.91504836	         -0.11799519	         -2.59334939	          0.05287568	          0.23947989	          0.04206830	          0.01000162	          0.22212740	          0.05131321	          0.18741174	          0.06388230	          0.11479970	          0.03578784	          0.01029318	          0.01000795	          0.01000050	          0.47441536	          0.01357043	          0.01000299	          0.01000341	          0.03160622	          0.02039633	          0.01235152	          0.26099388	          0.01741343	          0.09853882	          0.01002498	          0.01000754	          0.17590977	          0.31207313	          0.01360539	
          0.01217118	         -5.06256310	         -2.16296219	          6.97791812	          0.01989135	          0.93219638	         -0.00517275	         33.66360307	         -1.27803493	         -6.43011721	        -10.72407835	          1.96465882	          0.25393898	        -14.89099070	         -4.06837552	         -0.77793647	        -12.15210561	          8.74491453	         36.23736673	        -13.45271595	          0.33697109	         -2.81407453	          0.04396054	          0.19909392	          0.03497386	          0.01000098	          0.24601934	          0.04577915	          0.15580756	          0.17227426	          0.09543965	          0.02975483	          0.01000160	          0.01440590	          0.01203722	          0.51196475	          0.04955268	          0.01000217	          0.01000587	          0.02627615	          0.09889791	          0.01222013	          0.21698608	          0.01447796	          0.11807989	          0.01001017	          0.01000654	          0.14624467	          0.28173064	          0.01131112	
          0.02434235	         -5.08811317	         -2.24530282	          7.13774637	          0.04012651	          0.93029741	         -0.00441895	         33.55913370	         -1.16817503	         -6.49647386	        -12.58991196	          1.52762666	          0.21426899	        -15.59906653	         -4.36903941	         -1.05877778	        -12.84380788	          7.43199567	         38.10775844	        -12.96673085	          0.77992930	         -3.02503424	          0.04009000	          0.16551859	          0.02907585	          0.10063071	          0.28341406	          0.04859878	          0.12953302	          0.17464562	          0.07934453	          0.02473915	          0.01000086	          0.01197722	          0.01000743	          0.59130672	          0.05035492	          0.01000116	          0.01000321	          0.02184494	          0.08222404	          0.01016475	          0.18039795	          0.01203749	          0.20284294	          0.01003927	          0.01002136	          0.12158176	          0.24863849	          0.01000048	
          0.03651353	         -5.09534196	         -2.29926255	          7.25645572	          0.06034774	          0.92884091	         -0.00358786	         33.46790337	         -1.08239927	         -6.59928338	        -14.48307793	          0.95417801	          0.17843919	        -16.01296913	         -4.64074171	         -1.35024513	        -14.06145631	          6.02701772	         39.91605114	        -12.50213237	          1.19140838	         -3.21889339	          0.05519051	          0.13760536	          0.02417250	          0.14064237	          0.36703140	          0.04096664	          0.10768920	          0.21004771	          0.06596374	          0.02056955	          0.01001208	          0.01000158	          0.01000058	          0.64300188	          0.07416908	          0.01000135	          0.01000249	          0.01816103	          0.11989039	          0.01011510	          0.14998054	          0.01001422	          0.27933520	          0.01003572	          0.01202455	          0.10107797	          0.20670919	          0.01000049	
          0.04868471	         -5.08296194	         -2.33212646	          7.33581495	          0.08035317	          0.92791076	         -0.00269095	         33.47213172	         -1.01880565	         -6.72592307	        -16.59007655	          0.59107015	          0.11964231	        -16.02541328	         -4.89344993	         -1.63788952	        -15.97549531	          4.58493510	         41.53014157	        -12.08025233	          1.58201668	         -3.38926591	          0.06815191	          0.11439949	          0.02009607	          0.17741921	          0.41960373	          0.04276754	          0.08952929	          0.22660051	          0.05483951	          0.01710346	          0.06402764	          0.01000326	          0.01000137	          0.65976065	          0.11892716	          0.01000159	          0.01000187	          0.01509837	          0.18656480	          0.01024442	          0.12474433	          0.01000164	          0.31101564	          0.01000416	          0.01000116	          0.08403197	          0.17184929	          0.01000066	
